<svg xmlns="http://www.w3.org/2000/svg" width="51" height="61" viewBox="0 0 51 61">
  <g id="Logo" transform="translate(-40 -40)">
    <g id="Logo-2" data-name="Logo" transform="translate(-14.12 -10.081)">
      <g id="Group_1" data-name="Group 1">
        <path id="Path_1" data-name="Path 1" d="M97.566,57.48a25.584,25.584,0,0,0-35.992,0,25.14,25.14,0,0,0,0,35.733L63.368,95V74.738h.009A16.247,16.247,0,1,1,79.619,91.025V80.066a5.175,5.175,0,1,0-5.213-5.175v31.065l5.164,5.125,17.841-17.7.155-.172A24.905,24.905,0,0,0,97.566,57.48Z" fill="#231f20"/>
      </g>
    </g>
    <path id="Color_Overlay" data-name="Color Overlay" d="M60.287,95.875V64.809A5.213,5.213,0,1,1,65.5,69.985V80.944A16.135,16.135,0,1,0,49.257,64.657h-.009V84.915l-1.794-1.783a25.139,25.139,0,0,1,0-35.733,25.583,25.583,0,0,1,35.991,0,24.9,24.9,0,0,1,0,35.733l-.155.172L65.451,101Z" fill="#ed6950"/>
  </g>
</svg>
